<svg width="906" height="308" viewBox="0 0 906 308" fill="none" xmlns="http://www.w3.org/2000/svg">
<g filter="url(#filter0_d_424_39)">
<path d="M21.0938 275V137.5H76.0938V164.062H49.0625V190.859H75V216.719H49.0625V248.203H77.8906V275H21.0938ZM83.0469 275L97.8125 202.109L86.0938 137.422H112.969L120.078 184.688L126.406 137.422H153.359L141.641 202.109L156.328 275H128.516L119.844 221.25L110.938 275H83.0469ZM164.531 275V137.5H200.859C208.464 137.5 214.479 139.193 218.906 142.578C223.385 145.964 226.589 150.781 228.516 157.031C230.443 163.281 231.406 170.729 231.406 179.375C231.406 187.708 230.599 194.974 228.984 201.172C227.37 207.318 224.479 212.083 220.312 215.469C216.198 218.854 210.339 220.547 202.734 220.547H191.562V275H164.531ZM191.562 195.859H193.125C198.229 195.859 201.354 194.427 202.5 191.562C203.646 188.698 204.219 184.479 204.219 178.906C204.219 173.698 203.646 169.688 202.5 166.875C201.406 164.01 198.776 162.578 194.609 162.578H191.562V195.859ZM240.156 275V137.5H295.156V164.062H268.125V190.859H294.062V216.719H268.125V248.203H296.953V275H240.156ZM306.094 275V137.5H348.281C355.312 137.5 360.625 139.115 364.219 142.344C367.812 145.521 370.208 150 371.406 155.781C372.656 161.51 373.281 168.255 373.281 176.016C373.281 183.516 372.318 189.505 370.391 193.984C368.516 198.464 364.948 201.562 359.688 203.281C364.01 204.167 367.031 206.328 368.75 209.766C370.521 213.151 371.406 217.552 371.406 222.969V275H344.297V221.172C344.297 217.161 343.464 214.688 341.797 213.75C340.182 212.76 337.552 212.266 333.906 212.266V275H306.094ZM334.062 188.438H340.703C344.505 188.438 346.406 184.297 346.406 176.016C346.406 170.651 345.99 167.135 345.156 165.469C344.323 163.802 342.76 162.969 340.469 162.969H334.062V188.438ZM381.094 275V137.5H407.656V275H381.094ZM418.594 275V137.5H473.594V164.062H446.562V190.859H472.5V216.719H446.562V248.203H475.391V275H418.594ZM412.422 130.391L431.25 98.9062H463.125L481.953 130.391H453.906L447.188 108.125L440.469 130.391H412.422ZM484.531 275V137.5H512.812L525.469 203.359V137.5H552.031V275H525.156L511.406 206.25V275H484.531ZM596.25 276.25C586.302 276.25 578.281 273.151 572.188 266.953C566.146 260.755 563.125 252.083 563.125 240.938V177.5C563.125 164.167 565.755 153.958 571.016 146.875C576.328 139.792 584.948 136.25 596.875 136.25C603.385 136.25 609.167 137.448 614.219 139.844C619.323 142.24 623.333 145.833 626.25 150.625C629.167 155.365 630.625 161.354 630.625 168.594V192.344H603.281V172.031C603.281 167.917 602.76 165.156 601.719 163.75C600.677 162.292 599.062 161.562 596.875 161.562C594.323 161.562 592.604 162.5 591.719 164.375C590.833 166.198 590.391 168.646 590.391 171.719V240.547C590.391 244.349 590.938 247.031 592.031 248.594C593.177 250.156 594.792 250.938 596.875 250.938C599.219 250.938 600.859 249.974 601.797 248.047C602.786 246.12 603.281 243.62 603.281 240.547V215.781H630.938V241.797C630.938 253.88 627.891 262.656 621.797 268.125C615.703 273.542 607.188 276.25 596.25 276.25ZM638.906 275V137.5H665.469V275H638.906ZM672.656 275L685.938 137.5H732.578L745.625 275H719.609L717.656 252.812H701.094L699.375 275H672.656ZM703.047 230.859H715.547L709.531 160.938H708.281L703.047 230.859Z" fill="white"/>
<g filter="url(#filter1_d_424_39)">
<path d="M72.24 145.68C69.84 145.68 68.64 144.48 68.64 142.08C68.64 140.04 69.36 137.88 70.8 135.6C73.8 130.8 76.38 126.72 78.54 123.36C80.7 120 82.38 117.36 83.58 115.44C90.42 94.56 93.84 75.9 93.84 59.46C93.84 48.78 92.4 40.38 89.52 34.26C86.64 28.02 82.68 24.9 77.64 24.9C73.08 24.9 68.28 26.4 63.24 29.4C58.2 32.4 53.28 36.42 48.48 41.46C43.68 46.5 39.36 52.08 35.52 58.2C32.4 63 29.94 67.68 28.14 72.24C26.46 76.8 25.62 80.7 25.62 83.94C25.62 89.34 28.02 92.04 32.82 92.04C35.94 92.04 39.36 91.02 43.08 88.98C46.8 86.94 50.82 84.18 55.14 80.7C56.1 79.98 56.82 79.62 57.3 79.62C57.54 79.62 57.66 79.74 57.66 79.98C57.66 80.46 57.3 81.18 56.58 82.14C55.02 83.94 52.68 85.92 49.56 88.08C46.56 90.24 43.38 92.16 40.02 93.84C36.78 95.4 33.9 96.18 31.38 96.18C26.94 96.18 23.4 94.62 20.76 91.5C18.24 88.38 16.98 84.48 16.98 79.8C16.98 76.32 17.7 72.9 19.14 69.54C20.82 65.82 22.92 62.1 25.44 58.38C28.08 54.66 31.08 50.94 34.44 47.22C39 42.18 43.86 37.8 49.02 34.08C54.18 30.24 59.34 27.24 64.5 25.08C69.66 22.92 74.52 21.84 79.08 21.84C86.64 21.84 92.04 25.32 95.28 32.28C98.64 39.24 100.32 48.18 100.32 59.1C100.32 64.38 99.96 69.84 99.24 75.48C98.64 81 97.74 86.16 96.54 90.96C95.46 95.76 94.2 99.78 92.76 103.02C98.52 95.7 104.64 88.32 111.12 80.88C117.6 73.32 124.14 66.24 130.74 59.64C137.46 52.92 144.06 46.92 150.54 41.64C157.14 36.36 163.38 32.22 169.26 29.22C175.26 26.22 180.66 24.72 185.46 24.72C188.22 24.72 189.6 26.04 189.6 28.68C189.6 30.96 188.22 34.2 185.46 38.4C184.62 39.48 183.84 40.02 183.12 40.02C182.28 40.02 181.86 39.6 181.86 38.76C181.86 38.16 182.16 37.38 182.76 36.42C183 36.06 183.3 35.52 183.66 34.8C184.02 34.08 184.2 33.42 184.2 32.82C184.2 31.86 183.66 31.14 182.58 30.66C181.74 30.3 180.66 30.12 179.34 30.12C173.46 30.12 165.36 34.38 155.04 42.9C149.88 47.22 144.6 51.96 139.2 57.12C133.92 62.16 128.88 67.32 124.08 72.6C119.4 77.76 115.14 82.68 111.3 87.36C107.58 91.92 104.64 95.82 102.48 99.06C101.28 100.86 100.02 102.84 98.7 105C97.38 107.04 96 109.26 94.56 111.66L90.06 118.86C89.22 121.26 88.26 123.84 87.18 126.6C86.22 129.24 85.08 132.12 83.76 135.24C82.32 138.6 80.52 141.18 78.36 142.98C76.2 144.78 74.16 145.68 72.24 145.68ZM125.198 92.58C123.638 92.58 122.858 92.22 122.858 91.5C122.858 90.9 123.278 90.06 124.118 88.98C125.078 87.78 126.158 86.76 127.358 85.92C129.998 84.24 132.038 82.8 133.478 81.6C135.038 80.4 136.898 78.36 139.058 75.48C139.178 75.72 139.238 76.2 139.238 76.92C139.238 78.48 138.578 80.4 137.258 82.68C136.058 84.84 134.678 86.82 133.118 88.62C131.558 90.42 130.178 91.56 128.978 92.04C127.898 92.4 126.638 92.58 125.198 92.58ZM109.178 136.68C108.218 136.68 107.318 136.32 106.478 135.6C105.638 134.88 105.218 133.92 105.218 132.72C105.218 130.2 106.958 125.58 110.438 118.86L112.418 114.9C112.658 114.66 112.958 114.06 113.318 113.1C113.798 112.14 114.458 110.88 115.298 109.32C116.138 107.64 116.798 106.14 117.278 104.82C117.758 103.5 118.118 102.24 118.358 101.04C118.358 100.92 118.598 100.68 119.078 100.32C119.558 99.96 120.038 99.66 120.518 99.42L121.598 99.24C122.558 99.24 123.338 99.42 123.938 99.78C124.658 100.14 124.898 100.62 124.658 101.22C123.818 103.02 123.098 104.58 122.498 105.9C121.898 107.22 121.418 108.36 121.058 109.32H120.878C119.558 112.32 118.418 115.2 117.458 117.96C116.618 120.6 116.258 123.12 116.378 125.52L116.558 130.38C116.438 131.58 116.018 132.6 115.298 133.44C114.818 133.8 114.158 134.22 113.318 134.7C112.478 135.3 111.398 135.9 110.078 136.5C109.958 136.62 109.658 136.68 109.178 136.68ZM130.125 138.48C127.485 138.48 126.405 135.24 126.885 128.76C127.125 127.32 127.605 125.04 128.325 121.92C129.165 118.8 130.185 115.38 131.385 111.66C132.585 107.82 133.725 104.4 134.805 101.4C135.525 99.36 136.785 97.44 138.585 95.64C140.505 93.84 142.065 92.94 143.265 92.94C143.985 92.94 144.345 93.42 144.345 94.38C144.345 95.7 143.625 97.74 142.185 100.5C140.385 103.86 138.945 106.74 137.865 109.14C136.785 111.42 135.885 113.76 135.165 116.16C134.565 118.44 133.905 121.26 133.185 124.62V126.24C133.185 130.08 134.025 131.28 135.705 129.84C138.825 127.32 142.065 124.38 145.425 121.02C148.785 117.54 151.965 114.06 154.965 110.58C157.965 107.1 160.365 104.04 162.165 101.4C163.365 99.48 164.745 98.04 166.305 97.08C167.985 96 168.705 95.82 168.465 96.54C168.345 97.62 167.325 99.6 165.405 102.48C163.605 105.36 161.325 108.6 158.565 112.2C155.925 115.68 153.165 119.04 150.285 122.28C147.525 125.52 145.065 128.04 142.905 129.84C142.065 130.68 140.805 131.76 139.125 133.08C137.565 134.52 135.945 135.78 134.265 136.86C132.585 137.94 131.205 138.48 130.125 138.48ZM189.063 136.86C188.823 136.86 188.583 136.8 188.343 136.68C188.103 136.68 187.863 136.62 187.623 136.5C185.943 135.66 184.863 134.46 184.383 132.9C183.903 131.34 183.783 129.36 184.023 126.96C184.263 126 184.503 124.32 184.743 121.92C185.103 119.52 185.523 117.6 186.003 116.16L176.823 124.98L171.783 129.84C168.303 133.32 165.423 135.06 163.143 135.06C162.183 135.06 161.403 134.7 160.803 133.98C159.723 132.66 159.183 131.04 159.183 129.12C159.183 126.6 159.843 123.9 161.163 121.02C162.483 118.14 164.043 115.38 165.843 112.74C167.643 109.98 169.263 107.7 170.703 105.9C174.303 101.46 177.783 97.98 181.143 95.46C184.623 92.94 188.223 91.68 191.943 91.68C193.983 91.68 195.963 92.04 197.883 92.76C199.923 93.48 201.783 94.68 203.463 96.36L203.643 96.54C203.643 96.9 203.343 97.26 202.743 97.62C202.503 97.86 202.263 98.04 202.023 98.16C201.903 98.28 201.783 98.4 201.663 98.52C200.223 99.96 198.603 102.36 196.803 105.72C195.003 109.08 193.443 112.62 192.123 116.34C190.803 119.94 190.143 123.06 190.143 125.7C190.143 128.1 190.743 129.72 191.943 130.56C192.543 130.92 193.203 131.1 193.923 131.1C195.483 131.1 197.643 130.14 200.403 128.22C200.523 128.1 200.763 127.92 201.123 127.68C201.603 127.32 202.263 126.84 203.103 126.24C204.063 125.52 204.843 125.16 205.443 125.16C206.043 125.16 206.343 125.4 206.343 125.88C206.343 126.6 205.863 127.44 204.903 128.4C204.183 129 203.343 129.66 202.383 130.38C201.543 131.1 200.523 131.82 199.323 132.54C197.523 133.86 195.663 134.88 193.743 135.6C191.823 136.44 190.263 136.86 189.063 136.86ZM168.723 125.34C171.243 125.34 175.923 121.62 182.763 114.18C184.563 112.14 186.183 110.22 187.623 108.42C189.063 106.5 190.383 104.64 191.583 102.84C193.743 99.36 194.463 96.96 193.743 95.64C193.383 94.92 192.663 94.56 191.583 94.56C190.263 94.56 188.463 95.28 186.183 96.72C183.903 98.04 181.563 99.78 179.163 101.94C176.883 104.1 174.783 106.26 172.863 108.42C171.543 110.1 170.223 112.44 168.903 115.44C167.583 118.44 166.923 120.9 166.923 122.82C166.923 124.5 167.523 125.34 168.723 125.34ZM254.906 133.98C252.386 133.98 250.166 133.32 248.246 132C245.126 129.6 243.566 126 243.566 121.2C243.566 116.4 245.246 111.3 248.606 105.9C251.966 100.5 257.066 95.52 263.906 90.96C265.106 90.12 266.726 89.7 268.766 89.7C271.406 89.7 273.746 90.42 275.786 91.86C277.946 93.3 278.786 95.16 278.306 97.44C277.466 101.16 275.606 104.46 272.726 107.34C269.966 110.22 266.666 112.8 262.826 115.08C259.106 117.24 255.266 119.34 251.306 121.38C251.186 121.74 251.066 122.1 250.946 122.46C250.946 122.82 250.946 123.18 250.946 123.54C250.946 125.22 251.486 126.72 252.566 128.04C253.766 129.24 255.386 129.84 257.426 129.84C258.986 129.84 260.306 129.6 261.386 129.12C263.306 128.4 264.866 127.74 266.066 127.14C267.386 126.54 268.886 125.64 270.566 124.44C272.246 123.24 274.526 121.44 277.406 119.04C278.726 118.08 279.506 117.6 279.746 117.6C280.466 117.6 280.706 118.14 280.466 119.22C279.266 121.14 277.166 123.24 274.166 125.52C271.286 127.8 268.046 129.78 264.446 131.46C260.966 133.14 257.786 133.98 254.906 133.98ZM252.386 116.52C253.346 116.52 255.326 115.56 258.326 113.64C261.326 111.72 264.146 109.62 266.786 107.34C271.346 103.14 273.626 99.9 273.626 97.62C273.626 97.02 273.446 96.48 273.086 96C272.726 95.4 272.186 95.1 271.466 95.1C269.186 95.1 265.346 97.8 259.946 103.2C256.226 106.8 253.706 111.24 252.386 116.52ZM275.65 139.56C273.73 139.56 272.05 139.38 270.61 139.02C269.29 138.66 268.63 138.18 268.63 137.58C268.63 136.62 269.59 136.08 271.51 135.96C273.31 135.84 274.51 135.66 275.11 135.42C276.19 135.18 277.45 135 278.89 134.88C280.21 134.64 281.29 134.46 282.13 134.34C287.89 132.66 290.77 130.08 290.77 126.6C290.77 124.2 289.51 121.14 286.99 117.42C285.43 115.14 284.65 112.62 284.65 109.86C284.65 106.5 285.67 103.2 287.71 99.96C289.87 96.72 292.51 93.9 295.63 91.5C298.87 88.98 302.11 87.3 305.35 86.46C306.79 86.1 308.29 85.92 309.85 85.92C312.37 85.92 314.17 86.52 315.25 87.72C315.97 88.44 316.33 90 316.33 92.4C316.33 94.2 316.03 96.06 315.43 97.98C314.83 99.78 313.99 101.28 312.91 102.48C312.31 103.08 311.83 103.38 311.47 103.38C310.87 103.38 310.57 102.54 310.57 100.86L310.75 97.26C310.87 96.3 310.93 95.46 310.93 94.74C311.05 94.02 311.11 93.42 311.11 92.94C311.11 90.9 310.69 89.7 309.85 89.34C308.89 89.1 308.23 88.98 307.87 88.98C305.35 88.98 302.65 90.12 299.77 92.4C296.89 94.68 294.55 97.32 292.75 100.32C292.03 101.4 291.67 102.72 291.67 104.28C291.67 106.2 292.15 108.48 293.11 111.12C294.19 113.64 294.97 115.5 295.45 116.7C296.65 119.34 297.55 121.62 298.15 123.54C298.87 125.46 299.23 127.14 299.23 128.58C299.23 129.3 299.17 129.84 299.05 130.2C299.65 129.96 301.09 129.6 303.37 129.12C305.41 128.64 307.15 128.4 308.59 128.4C309.43 128.4 309.85 128.58 309.85 128.94C309.85 129.06 309.49 129.48 308.77 130.2C308.41 130.56 307.27 131.16 305.35 132C303.55 132.72 301.39 133.5 298.87 134.34C296.47 135.18 294.07 135.96 291.67 136.68C289.27 137.4 287.23 137.94 285.55 138.3C282.67 139.14 279.37 139.56 275.65 139.56ZM310.279 139.56C308.359 139.56 306.679 139.38 305.239 139.02C303.919 138.66 303.259 138.18 303.259 137.58C303.259 136.62 304.219 136.08 306.139 135.96C307.939 135.84 309.139 135.66 309.739 135.42C310.819 135.18 312.079 135 313.519 134.88C314.839 134.64 315.919 134.46 316.759 134.34C322.519 132.66 325.399 130.08 325.399 126.6C325.399 124.2 324.139 121.14 321.619 117.42C320.059 115.14 319.279 112.62 319.279 109.86C319.279 106.5 320.299 103.2 322.339 99.96C324.499 96.72 327.139 93.9 330.259 91.5C333.499 88.98 336.739 87.3 339.979 86.46C341.419 86.1 342.919 85.92 344.479 85.92C346.999 85.92 348.799 86.52 349.879 87.72C350.599 88.44 350.959 90 350.959 92.4C350.959 94.2 350.659 96.06 350.059 97.98C349.459 99.78 348.619 101.28 347.539 102.48C346.939 103.08 346.459 103.38 346.099 103.38C345.499 103.38 345.199 102.54 345.199 100.86L345.379 97.26C345.499 96.3 345.559 95.46 345.559 94.74C345.679 94.02 345.739 93.42 345.739 92.94C345.739 90.9 345.319 89.7 344.479 89.34C343.519 89.1 342.859 88.98 342.499 88.98C339.979 88.98 337.279 90.12 334.399 92.4C331.519 94.68 329.179 97.32 327.379 100.32C326.659 101.4 326.299 102.72 326.299 104.28C326.299 106.2 326.779 108.48 327.739 111.12C328.819 113.64 329.599 115.5 330.079 116.7C331.279 119.34 332.179 121.62 332.779 123.54C333.499 125.46 333.859 127.14 333.859 128.58C333.859 129.3 333.799 129.84 333.679 130.2C334.279 129.96 335.719 129.6 337.999 129.12C340.039 128.64 341.779 128.4 343.219 128.4C344.059 128.4 344.479 128.58 344.479 128.94C344.479 129.06 344.119 129.48 343.399 130.2C343.039 130.56 341.899 131.16 339.979 132C338.179 132.72 336.019 133.5 333.499 134.34C331.099 135.18 328.699 135.96 326.299 136.68C323.899 137.4 321.859 137.94 320.179 138.3C317.299 139.14 313.999 139.56 310.279 139.56ZM378.028 136.86C377.788 136.86 377.548 136.8 377.308 136.68C377.068 136.68 376.828 136.62 376.588 136.5C374.908 135.66 373.828 134.46 373.348 132.9C372.868 131.34 372.748 129.36 372.988 126.96C373.228 126 373.468 124.32 373.708 121.92C374.068 119.52 374.488 117.6 374.968 116.16L365.788 124.98L360.748 129.84C357.268 133.32 354.388 135.06 352.108 135.06C351.148 135.06 350.368 134.7 349.768 133.98C348.688 132.66 348.148 131.04 348.148 129.12C348.148 126.6 348.808 123.9 350.128 121.02C351.448 118.14 353.008 115.38 354.808 112.74C356.608 109.98 358.228 107.7 359.668 105.9C363.268 101.46 366.748 97.98 370.108 95.46C373.588 92.94 377.188 91.68 380.908 91.68C382.948 91.68 384.928 92.04 386.848 92.76C388.888 93.48 390.748 94.68 392.428 96.36L392.608 96.54C392.608 96.9 392.308 97.26 391.708 97.62C391.468 97.86 391.228 98.04 390.988 98.16C390.868 98.28 390.748 98.4 390.628 98.52C389.188 99.96 387.568 102.36 385.768 105.72C383.968 109.08 382.408 112.62 381.088 116.34C379.768 119.94 379.108 123.06 379.108 125.7C379.108 128.1 379.708 129.72 380.908 130.56C381.508 130.92 382.168 131.1 382.888 131.1C384.448 131.1 386.608 130.14 389.368 128.22C389.488 128.1 389.728 127.92 390.088 127.68C390.568 127.32 391.228 126.84 392.068 126.24C393.028 125.52 393.808 125.16 394.408 125.16C395.008 125.16 395.308 125.4 395.308 125.88C395.308 126.6 394.828 127.44 393.868 128.4C393.148 129 392.308 129.66 391.348 130.38C390.508 131.1 389.488 131.82 388.288 132.54C386.488 133.86 384.628 134.88 382.708 135.6C380.788 136.44 379.228 136.86 378.028 136.86ZM357.688 125.34C360.208 125.34 364.888 121.62 371.728 114.18C373.528 112.14 375.148 110.22 376.588 108.42C378.028 106.5 379.348 104.64 380.548 102.84C382.708 99.36 383.428 96.96 382.708 95.64C382.348 94.92 381.628 94.56 380.548 94.56C379.228 94.56 377.428 95.28 375.148 96.72C372.868 98.04 370.528 99.78 368.128 101.94C365.848 104.1 363.748 106.26 361.828 108.42C360.508 110.1 359.188 112.44 357.868 115.44C356.548 118.44 355.888 120.9 355.888 122.82C355.888 124.5 356.488 125.34 357.688 125.34Z" fill="#FFC700"/>
</g>
</g>
<defs>
<filter id="filter0_d_424_39" x="0.882338" y="20.7423" width="760.84" height="286.605" filterUnits="userSpaceOnUse" color-interpolation-filters="sRGB">
<feFlood flood-opacity="0" result="BackgroundImageFix"/>
<feColorMatrix in="SourceAlpha" type="matrix" values="0 0 0 0 0 0 0 0 0 0 0 0 0 0 0 0 0 0 127 0" result="hardAlpha"/>
<feOffset dy="15"/>
<feGaussianBlur stdDeviation="8.04882"/>
<feColorMatrix type="matrix" values="0 0 0 0 0 0 0 0 0 0 0 0 0 0 0 0 0 0 0.4 0"/>
<feBlend mode="normal" in2="BackgroundImageFix" result="effect1_dropShadow_424_39"/>
<feBlend mode="normal" in="SourceGraphic" in2="effect1_dropShadow_424_39" result="shape"/>
</filter>
<filter id="filter1_d_424_39" x="14.98" y="21.84" width="382.328" height="129.84" filterUnits="userSpaceOnUse" color-interpolation-filters="sRGB">
<feFlood flood-opacity="0" result="BackgroundImageFix"/>
<feColorMatrix in="SourceAlpha" type="matrix" values="0 0 0 0 0 0 0 0 0 0 0 0 0 0 0 0 0 0 127 0" result="hardAlpha"/>
<feOffset dy="4"/>
<feGaussianBlur stdDeviation="1"/>
<feColorMatrix type="matrix" values="0 0 0 0 0 0 0 0 0 0 0 0 0 0 0 0 0 0 0.35 0"/>
<feBlend mode="normal" in2="BackgroundImageFix" result="effect1_dropShadow_424_39"/>
<feBlend mode="normal" in="SourceGraphic" in2="effect1_dropShadow_424_39" result="shape"/>
</filter>
</defs>
</svg>
