<svg width="468" height="175" viewBox="0 0 468 175" fill="none" xmlns="http://www.w3.org/2000/svg">
<path d="M74.3633 166.207V80.7578H92.1367V88.5703C93.2109 85.8685 94.6921 83.7689 96.5801 82.2715C98.5007 80.7415 101.235 79.9766 104.783 79.9766C109.568 79.9766 112.938 81.7181 114.891 85.2012C116.876 88.6842 117.869 93.2415 117.869 98.873V134.908C117.869 138.652 117.332 142.037 116.258 145.064C115.216 148.059 113.556 150.436 111.277 152.193C109.031 153.919 106.085 154.781 102.439 154.781C97.6868 154.781 94.2526 151.917 92.1367 146.188V166.207H74.3633ZM96.2871 141.158C98.11 141.158 99.2005 140.247 99.5586 138.424C99.9492 136.601 100.145 134.355 100.145 131.686V103.072C100.145 100.37 99.9492 98.1243 99.5586 96.334C99.2005 94.5111 98.11 93.5996 96.2871 93.5996C94.3991 93.5996 93.2272 94.5273 92.7715 96.3828C92.3483 98.2057 92.1367 100.436 92.1367 103.072V131.686C92.1367 134.322 92.3483 136.568 92.7715 138.424C93.2272 140.247 94.3991 141.158 96.2871 141.158ZM137.889 154.781C133.82 154.781 130.711 153.837 128.562 151.949C126.447 150.061 124.998 147.473 124.217 144.186C123.436 140.898 123.045 137.171 123.045 133.004C123.045 128.544 123.484 124.898 124.363 122.066C125.242 119.202 126.74 116.858 128.855 115.035C131.004 113.212 133.95 111.666 137.693 110.396L148.533 106.686V99.166C148.533 95.2272 147.247 93.2578 144.676 93.2578C142.332 93.2578 141.16 94.8529 141.16 98.043V102.438H124.168C124.135 102.177 124.119 101.852 124.119 101.461C124.119 101.038 124.119 100.566 124.119 100.045C124.119 92.7533 125.828 87.5938 129.246 84.5664C132.697 81.5065 138.149 79.9766 145.604 79.9766C149.51 79.9766 153.009 80.6764 156.102 82.0762C159.194 83.4434 161.635 85.4779 163.426 88.1797C165.249 90.8815 166.16 94.2181 166.16 98.1895V154H148.777V145.309C147.931 148.368 146.531 150.712 144.578 152.34C142.625 153.967 140.395 154.781 137.889 154.781ZM144.773 141.207C146.206 141.207 147.182 140.605 147.703 139.4C148.224 138.196 148.484 136.894 148.484 135.494V115.084C146.076 116.061 144.204 117.298 142.869 118.795C141.535 120.26 140.867 122.424 140.867 125.289V134.713C140.867 139.042 142.169 141.207 144.773 141.207ZM172.898 154V80.7578H190.672V88.9121C191.518 86.0801 193.016 83.8665 195.164 82.2715C197.312 80.6764 200.014 79.8789 203.27 79.8789V94.4785C201.837 94.4785 200.128 94.6413 198.143 94.9668C196.157 95.2598 194.415 95.6829 192.918 96.2363C191.421 96.7572 190.672 97.3431 190.672 97.9941V154H172.898ZM229.588 154.781C221.385 154.781 215.558 152.682 212.107 148.482C208.689 144.283 206.98 138.115 206.98 129.977V107.418C206.98 101.298 207.632 96.2038 208.934 92.1348C210.236 88.0658 212.514 85.0221 215.77 83.0039C219.025 80.9857 223.549 79.9766 229.344 79.9766C233.38 79.9766 236.993 80.6927 240.184 82.125C243.406 83.5573 245.945 85.6569 247.801 88.4238C249.656 91.1908 250.584 94.5762 250.584 98.5801V109.762H232.762V99.5078C232.762 97.8151 232.518 96.3991 232.029 95.2598C231.541 94.0879 230.483 93.502 228.855 93.502C225.991 93.502 224.559 95.5365 224.559 99.6055V135.104C224.559 136.601 224.884 137.984 225.535 139.254C226.186 140.491 227.26 141.109 228.758 141.109C230.288 141.109 231.346 140.507 231.932 139.303C232.55 138.066 232.859 136.633 232.859 135.006V122.701H250.584V135.494C250.584 139.531 249.673 142.997 247.85 145.895C246.059 148.759 243.585 150.956 240.428 152.486C237.27 154.016 233.657 154.781 229.588 154.781ZM277.195 154.781C271.987 154.781 267.837 153.805 264.744 151.852C261.652 149.898 259.438 147.083 258.104 143.404C256.769 139.726 256.102 135.299 256.102 130.123V100.68C256.102 93.8763 258.055 88.7331 261.961 85.25C265.867 81.7344 271.238 79.9766 278.074 79.9766C292.137 79.9766 299.168 86.8776 299.168 100.68V106.002C299.168 112.447 299.103 116.777 298.973 118.99H273.582V133.15C273.582 134.452 273.663 135.738 273.826 137.008C273.989 138.245 274.347 139.27 274.9 140.084C275.486 140.898 276.414 141.305 277.684 141.305C279.507 141.305 280.646 140.523 281.102 138.961C281.557 137.366 281.785 135.299 281.785 132.76V125.729H299.168V129.879C299.168 135.348 298.484 139.938 297.117 143.648C295.783 147.327 293.504 150.11 290.281 151.998C287.091 153.854 282.729 154.781 277.195 154.781ZM273.484 110.299H281.785V100.436C281.785 97.7988 281.46 95.9108 280.809 94.7715C280.158 93.5996 279.181 93.0137 277.879 93.0137C276.479 93.0137 275.389 93.5671 274.607 94.6738C273.859 95.7806 273.484 97.7012 273.484 100.436V110.299ZM305.418 76.2656V61.7148H322.898V76.2656H305.418ZM305.418 154V80.7578H322.898V154H305.418ZM329.832 154V80.7578H347.605V88.9121C348.452 86.0801 349.949 83.8665 352.098 82.2715C354.246 80.6764 356.948 79.8789 360.203 79.8789V94.4785C358.771 94.4785 357.062 94.6413 355.076 94.9668C353.09 95.2598 351.349 95.6829 349.852 96.2363C348.354 96.7572 347.605 97.3431 347.605 97.9941V154H329.832ZM385.789 154.781C371.206 154.781 363.914 147.213 363.914 132.076V102.682C363.914 95.7806 365.851 90.2793 369.725 86.1777C373.598 82.0436 378.953 79.9766 385.789 79.9766C392.658 79.9766 398.029 82.0436 401.902 86.1777C405.776 90.2793 407.713 95.7806 407.713 102.682V132.076C407.713 147.213 400.405 154.781 385.789 154.781ZM385.789 141.305C387.254 141.305 388.296 140.784 388.914 139.742C389.565 138.668 389.891 137.317 389.891 135.689V99.8984C389.891 95.6341 388.523 93.502 385.789 93.502C383.055 93.502 381.688 95.6341 381.688 99.8984V135.689C381.688 137.317 381.997 138.668 382.615 139.742C383.266 140.784 384.324 141.305 385.789 141.305ZM434.275 154.781C419.822 154.781 412.596 147.457 412.596 132.809V126.998H430.174V135.592C430.174 137.252 430.499 138.554 431.15 139.498C431.801 140.442 432.843 140.914 434.275 140.914C436.814 140.914 438.084 139.01 438.084 135.201C438.084 132.011 437.417 129.635 436.082 128.072C434.747 126.477 433.12 124.947 431.199 123.482L421.873 116.305C418.943 114.026 416.714 111.617 415.184 109.078C413.654 106.539 412.889 103.007 412.889 98.4824C412.889 94.2832 413.882 90.8164 415.867 88.082C417.885 85.3477 420.538 83.3132 423.826 81.9785C427.146 80.6439 430.727 79.9766 434.568 79.9766C448.761 79.9766 455.857 87.0566 455.857 101.217V102.584H437.791V99.8008C437.791 98.3359 437.531 96.9199 437.01 95.5527C436.521 94.1855 435.545 93.502 434.08 93.502C431.606 93.502 430.369 94.804 430.369 97.4082C430.369 100.045 431.411 102.112 433.494 103.609L444.334 111.52C447.719 113.961 450.551 116.858 452.83 120.211C455.141 123.564 456.297 128.023 456.297 133.59C456.297 140.491 454.327 145.748 450.389 149.361C446.482 152.975 441.111 154.781 434.275 154.781Z" fill="#151515"/>
<g filter="url(#filter0_d_833_282)">
<path d="M85.2656 89.8C84.0656 89.8 83.0256 89.44 82.1456 88.72C81.3456 88 80.9456 87.12 80.9456 86.08C80.9456 85.52 81.0656 85 81.3056 84.52C83.3856 79.48 86.9856 72.92 92.1056 64.84L95.8256 58.96C100.626 51.44 104.906 44.48 108.666 38.08C112.506 31.6 115.546 25.88 117.786 20.92C120.026 15.88 121.146 11.84 121.146 8.8C121.146 5.44 119.586 3.76 116.466 3.76C114.786 3.76 112.666 4.24 110.106 5.2C107.546 6.24 104.786 7.55999 101.826 9.16C98.9456 10.76 95.8656 12.72 92.5856 15.04C88.2656 18.08 84.2256 21.44 80.4656 25.12C76.7056 28.72 73.5456 32.44 70.9856 36.28C68.5056 40.04 66.8656 43.68 66.0656 47.2C65.7456 48.56 65.5856 50.04 65.5856 51.64C65.5856 57.8 69.1856 60.88 76.3856 60.88C76.9456 60.88 78.0256 60.68 79.6256 60.28C81.3056 59.8 82.9856 59.28 84.6656 58.72C86.3456 58.16 87.4256 57.76 87.9056 57.52C88.3856 57.28 88.7456 57.16 88.9856 57.16C89.4656 57.16 89.7056 57.4 89.7056 57.88C89.7056 58.6 89.1056 59.24 87.9056 59.8C87.2656 60.12 86.1456 60.52 84.5456 61C82.9456 61.48 81.3456 61.92 79.7456 62.32C78.2256 62.72 77.1056 62.92 76.3856 62.92C71.5856 62.84 67.9456 62 65.4656 60.4C63.0656 58.8 61.8656 56.12 61.8656 52.36C61.8656 51.72 61.9056 50.96 61.9856 50.08C62.1456 49.2 62.3056 48.24 62.4656 47.2C63.9056 40.4 67.6256 33.64 73.6256 26.92C77.6256 22.44 82.0656 18.4 86.9456 14.8C91.8256 11.2 96.7856 8.2 101.826 5.8C106.946 3.32 111.746 1.64 116.226 0.759999C117.666 0.519997 118.906 0.399996 119.946 0.399996C124.506 0.399996 126.786 2.6 126.786 7C126.786 8.52 126.546 10.2 126.066 12.04C125.266 15.4 124.066 18.72 122.466 22C120.946 25.2 119.026 28.6 116.706 32.2C114.466 35.8 111.826 39.92 108.786 44.56L101.946 55C101.866 55.16 101.866 55.32 101.946 55.48C102.106 55.64 102.266 55.64 102.426 55.48C103.706 54.12 105.546 52.32 107.946 50.08C110.346 47.76 113.386 45 117.066 41.8C120.586 38.68 124.146 35.68 127.746 32.8C131.346 29.92 134.746 27.36 137.946 25.12C141.226 22.8 144.146 21 146.706 19.72C149.266 18.36 151.266 17.68 152.706 17.68C155.826 17.68 157.386 19.28 157.386 22.48C157.386 24.8 156.466 27.72 154.626 31.24C152.866 34.44 151.106 37.68 149.346 40.96C147.666 44.16 146.026 47.36 144.426 50.56H144.306C138.546 61.92 135.306 69.44 134.586 73.12C134.426 74 134.306 74.8 134.226 75.52C134.146 76.16 134.106 76.72 134.106 77.2C134.106 78.64 134.306 79.8 134.706 80.68C135.186 81.56 135.946 82 136.986 82C138.026 82 139.506 81.56 141.426 80.68C143.346 79.88 145.186 78.8 146.946 77.44C148.546 76.24 149.626 75.64 150.186 75.64C150.506 75.64 150.666 75.76 150.666 76C150.666 76.24 150.546 76.56 150.306 76.96C149.746 77.92 148.786 78.88 147.426 79.84C144.866 81.68 142.666 83.08 140.826 84.04C139.066 85.08 137.586 85.6 136.386 85.6C134.146 85.6 132.306 84.88 130.866 83.44C129.506 82 128.826 79.96 128.826 77.32C128.826 77 128.866 76.52 128.946 75.88C129.026 75.24 129.146 74.44 129.306 73.48C129.866 70.84 130.986 67.48 132.666 63.4C134.426 59.32 136.586 54.68 139.146 49.48C141.786 44.28 144.626 38.76 147.666 32.92C148.946 30.44 149.586 28.64 149.586 27.52C149.586 26.24 148.946 25.6 147.666 25.6C146.546 25.6 145.026 26.04 143.106 26.92C141.266 27.72 139.266 28.76 137.106 30.04C135.026 31.32 132.986 32.64 130.986 34C128.986 35.36 127.306 36.56 125.946 37.6C122.586 40.24 118.986 43.44 115.146 47.2C111.386 50.96 107.706 54.92 104.106 59.08C100.586 63.24 97.4656 67.4 94.7456 71.56C94.6656 71.72 94.5856 72.04 94.5056 72.52C94.4256 72.92 94.3456 73.44 94.2656 74.08C94.1856 75.76 93.9856 77.24 93.6656 78.52C93.4256 79.8 92.9056 81.16 92.1056 82.6C91.5456 83.64 91.0656 84.52 90.6656 85.24C90.2656 86.04 89.9056 86.64 89.5856 87.04C88.4656 88.88 87.0256 89.8 85.2656 89.8ZM151.878 81.04C148.758 81.04 147.198 79.64 147.198 76.84C147.198 76.68 147.198 76.4 147.198 76C147.278 75.6 147.358 75.12 147.438 74.56C148.238 71.28 149.838 68.12 152.238 65.08C154.718 61.96 157.558 59.24 160.758 56.92C161.958 55.96 163.878 55.48 166.518 55.48C168.038 55.48 169.358 55.72 170.478 56.2C171.678 56.6 172.518 57.24 172.998 58.12C173.478 58.92 173.718 59.84 173.718 60.88C173.718 61.04 173.678 61.28 173.598 61.6C173.598 61.92 173.558 62.28 173.478 62.68C173.638 62.6 173.878 62.56 174.198 62.56C174.598 62.56 175.078 62.52 175.638 62.44C176.198 62.36 176.718 62.28 177.198 62.2C177.758 62.12 178.318 62.08 178.878 62.08H179.358C180.238 62.08 180.318 62.44 179.598 63.16C178.958 63.8 178.078 64.2 176.958 64.36L172.878 64.84C172.078 67.08 170.678 69.32 168.678 71.56C166.758 73.8 164.598 75.76 162.198 77.44C159.878 79.04 157.678 80.08 155.598 80.56C154.398 80.88 153.158 81.04 151.878 81.04ZM167.238 63.16C167.718 63.16 168.278 63.16 168.918 63.16C169.638 63.08 170.438 63 171.318 62.92C171.398 62.76 171.438 62.4 171.438 61.84C171.438 60.4 170.838 59.4 169.638 58.84C168.998 58.44 168.198 58.24 167.238 58.24C166.038 58.24 164.798 58.64 163.518 59.44C162.318 60.16 161.038 61.12 159.678 62.32C161.358 62.88 163.878 63.16 167.238 63.16ZM155.478 76.84C156.278 76.84 157.398 76.48 158.838 75.76C160.358 74.96 161.918 73.92 163.518 72.64C165.118 71.36 166.558 70 167.838 68.56C168.238 68.16 168.638 67.68 169.038 67.12C169.438 66.48 169.878 65.84 170.358 65.2L167.478 65.56C162.998 66.2 158.998 66.56 155.478 66.64C153.718 69.52 152.638 71.92 152.238 73.84C152.158 74.88 152.438 75.64 153.078 76.12C153.718 76.6 154.518 76.84 155.478 76.84ZM173.157 84.04C171.877 84.04 170.757 83.92 169.797 83.68C168.917 83.44 168.477 83.12 168.477 82.72C168.477 82.08 169.117 81.72 170.397 81.64C171.597 81.56 172.397 81.44 172.797 81.28C173.517 81.12 174.357 81 175.317 80.92C176.197 80.76 176.917 80.64 177.477 80.56C181.317 79.44 183.237 77.72 183.237 75.4C183.237 73.8 182.397 71.76 180.717 69.28C179.677 67.76 179.157 66.08 179.157 64.24C179.157 62 179.837 59.8 181.197 57.64C182.637 55.48 184.397 53.6 186.477 52C188.637 50.32 190.797 49.2 192.957 48.64C193.917 48.4 194.917 48.28 195.957 48.28C197.637 48.28 198.837 48.68 199.557 49.48C200.037 49.96 200.277 51 200.277 52.6C200.277 53.8 200.077 55.04 199.677 56.32C199.277 57.52 198.717 58.52 197.997 59.32C197.597 59.72 197.277 59.92 197.037 59.92C196.637 59.92 196.437 59.36 196.437 58.24L196.557 55.84C196.637 55.2 196.677 54.64 196.677 54.16C196.757 53.68 196.797 53.28 196.797 52.96C196.797 51.6 196.517 50.8 195.957 50.56C195.317 50.4 194.877 50.32 194.637 50.32C192.957 50.32 191.157 51.08 189.237 52.6C187.317 54.12 185.757 55.88 184.557 57.88C184.077 58.6 183.837 59.48 183.837 60.52C183.837 61.8 184.157 63.32 184.797 65.08C185.517 66.76 186.037 68 186.357 68.8C187.157 70.56 187.757 72.08 188.157 73.36C188.637 74.64 188.877 75.76 188.877 76.72C188.877 77.2 188.837 77.56 188.757 77.8C189.157 77.64 190.117 77.4 191.637 77.08C192.997 76.76 194.157 76.6 195.117 76.6C195.677 76.6 195.957 76.72 195.957 76.96C195.957 77.04 195.717 77.32 195.237 77.8C194.997 78.04 194.237 78.44 192.957 79C191.757 79.48 190.317 80 188.637 80.56C187.037 81.12 185.437 81.64 183.837 82.12C182.237 82.6 180.877 82.96 179.757 83.2C177.837 83.76 175.637 84.04 173.157 84.04ZM196.243 84.04C194.963 84.04 193.843 83.92 192.883 83.68C192.003 83.44 191.563 83.12 191.563 82.72C191.563 82.08 192.203 81.72 193.483 81.64C194.683 81.56 195.483 81.44 195.883 81.28C196.603 81.12 197.443 81 198.403 80.92C199.283 80.76 200.003 80.64 200.563 80.56C204.403 79.44 206.323 77.72 206.323 75.4C206.323 73.8 205.483 71.76 203.803 69.28C202.763 67.76 202.243 66.08 202.243 64.24C202.243 62 202.923 59.8 204.283 57.64C205.723 55.48 207.483 53.6 209.563 52C211.723 50.32 213.883 49.2 216.043 48.64C217.003 48.4 218.003 48.28 219.043 48.28C220.723 48.28 221.923 48.68 222.643 49.48C223.123 49.96 223.363 51 223.363 52.6C223.363 53.8 223.163 55.04 222.763 56.32C222.363 57.52 221.803 58.52 221.083 59.32C220.683 59.72 220.363 59.92 220.123 59.92C219.723 59.92 219.523 59.36 219.523 58.24L219.643 55.84C219.723 55.2 219.763 54.64 219.763 54.16C219.843 53.68 219.883 53.28 219.883 52.96C219.883 51.6 219.603 50.8 219.043 50.56C218.403 50.4 217.963 50.32 217.723 50.32C216.043 50.32 214.243 51.08 212.323 52.6C210.403 54.12 208.843 55.88 207.643 57.88C207.163 58.6 206.923 59.48 206.923 60.52C206.923 61.8 207.243 63.32 207.883 65.08C208.603 66.76 209.123 68 209.443 68.8C210.243 70.56 210.843 72.08 211.243 73.36C211.723 74.64 211.963 75.76 211.963 76.72C211.963 77.2 211.923 77.56 211.843 77.8C212.243 77.64 213.203 77.4 214.723 77.08C216.083 76.76 217.243 76.6 218.203 76.6C218.763 76.6 219.043 76.72 219.043 76.96C219.043 77.04 218.803 77.32 218.323 77.8C218.083 78.04 217.323 78.44 216.043 79C214.843 79.48 213.403 80 211.723 80.56C210.123 81.12 208.523 81.64 206.923 82.12C205.323 82.6 203.963 82.96 202.843 83.2C200.923 83.76 198.723 84.04 196.243 84.04ZM226.409 81.04C223.289 81.04 221.729 79.64 221.729 76.84C221.729 76.68 221.729 76.4 221.729 76C221.809 75.6 221.889 75.12 221.969 74.56C222.769 71.28 224.369 68.12 226.769 65.08C229.249 61.96 232.089 59.24 235.289 56.92C236.489 55.96 238.409 55.48 241.049 55.48C242.569 55.48 243.889 55.72 245.009 56.2C246.209 56.6 247.049 57.24 247.529 58.12C248.009 58.92 248.249 59.84 248.249 60.88C248.249 61.04 248.209 61.28 248.129 61.6C248.129 61.92 248.089 62.28 248.009 62.68C248.169 62.6 248.409 62.56 248.729 62.56C249.129 62.56 249.609 62.52 250.169 62.44C250.729 62.36 251.249 62.28 251.729 62.2C252.289 62.12 252.849 62.08 253.409 62.08H253.889C254.769 62.08 254.849 62.44 254.129 63.16C253.489 63.8 252.609 64.2 251.489 64.36L247.409 64.84C246.609 67.08 245.209 69.32 243.209 71.56C241.289 73.8 239.129 75.76 236.729 77.44C234.409 79.04 232.209 80.08 230.129 80.56C228.929 80.88 227.689 81.04 226.409 81.04ZM241.769 63.16C242.249 63.16 242.809 63.16 243.449 63.16C244.169 63.08 244.969 63 245.849 62.92C245.929 62.76 245.969 62.4 245.969 61.84C245.969 60.4 245.369 59.4 244.169 58.84C243.529 58.44 242.729 58.24 241.769 58.24C240.569 58.24 239.329 58.64 238.049 59.44C236.849 60.16 235.569 61.12 234.209 62.32C235.889 62.88 238.409 63.16 241.769 63.16ZM230.009 76.84C230.809 76.84 231.929 76.48 233.369 75.76C234.889 74.96 236.449 73.92 238.049 72.64C239.649 71.36 241.089 70 242.369 68.56C242.769 68.16 243.169 67.68 243.569 67.12C243.969 66.48 244.409 65.84 244.889 65.2L242.009 65.56C237.529 66.2 233.529 66.56 230.009 66.64C228.249 69.52 227.169 71.92 226.769 73.84C226.689 74.88 226.969 75.64 227.609 76.12C228.249 76.6 229.049 76.84 230.009 76.84ZM247.688 84.04C246.408 84.04 245.288 83.92 244.328 83.68C243.448 83.44 243.008 83.12 243.008 82.72C243.008 82.08 243.648 81.72 244.928 81.64C246.128 81.56 246.928 81.44 247.328 81.28C248.048 81.12 248.888 81 249.848 80.92C250.728 80.76 251.448 80.64 252.008 80.56C255.848 79.44 257.768 77.72 257.768 75.4C257.768 73.8 256.928 71.76 255.248 69.28C254.208 67.76 253.688 66.08 253.688 64.24C253.688 62 254.368 59.8 255.728 57.64C257.168 55.48 258.928 53.6 261.008 52C263.168 50.32 265.328 49.2 267.488 48.64C268.448 48.4 269.448 48.28 270.488 48.28C272.168 48.28 273.368 48.68 274.088 49.48C274.568 49.96 274.808 51 274.808 52.6C274.808 53.8 274.608 55.04 274.208 56.32C273.808 57.52 273.248 58.52 272.528 59.32C272.128 59.72 271.808 59.92 271.568 59.92C271.168 59.92 270.968 59.36 270.968 58.24L271.088 55.84C271.168 55.2 271.208 54.64 271.208 54.16C271.288 53.68 271.328 53.28 271.328 52.96C271.328 51.6 271.048 50.8 270.488 50.56C269.848 50.4 269.408 50.32 269.168 50.32C267.488 50.32 265.688 51.08 263.768 52.6C261.848 54.12 260.288 55.88 259.088 57.88C258.608 58.6 258.368 59.48 258.368 60.52C258.368 61.8 258.688 63.32 259.328 65.08C260.048 66.76 260.568 68 260.888 68.8C261.688 70.56 262.288 72.08 262.688 73.36C263.168 74.64 263.408 75.76 263.408 76.72C263.408 77.2 263.368 77.56 263.288 77.8C263.688 77.64 264.648 77.4 266.168 77.08C267.528 76.76 268.688 76.6 269.648 76.6C270.208 76.6 270.488 76.72 270.488 76.96C270.488 77.04 270.248 77.32 269.768 77.8C269.528 78.04 268.768 78.44 267.488 79C266.288 79.48 264.848 80 263.168 80.56C261.568 81.12 259.968 81.64 258.368 82.12C256.768 82.6 255.408 82.96 254.288 83.2C252.368 83.76 250.168 84.04 247.688 84.04Z" fill="#FFD600"/>
</g>
<defs>
<filter id="filter0_d_833_282" x="59.8656" y="0.399902" width="216.943" height="94.4001" filterUnits="userSpaceOnUse" color-interpolation-filters="sRGB">
<feFlood flood-opacity="0" result="BackgroundImageFix"/>
<feColorMatrix in="SourceAlpha" type="matrix" values="0 0 0 0 0 0 0 0 0 0 0 0 0 0 0 0 0 0 127 0" result="hardAlpha"/>
<feOffset dy="3"/>
<feGaussianBlur stdDeviation="1"/>
<feColorMatrix type="matrix" values="0 0 0 0 0 0 0 0 0 0 0 0 0 0 0 0 0 0 0.25 0"/>
<feBlend mode="normal" in2="BackgroundImageFix" result="effect1_dropShadow_833_282"/>
<feBlend mode="normal" in="SourceGraphic" in2="effect1_dropShadow_833_282" result="shape"/>
</filter>
</defs>
</svg>
