<svg width="442" height="175" viewBox="0 0 442 175" fill="none" xmlns="http://www.w3.org/2000/svg">
<path d="M79.9062 166.207V80.7578H97.6797V88.5703C98.7539 85.8685 100.235 83.7689 102.123 82.2715C104.044 80.7415 106.778 79.9766 110.326 79.9766C115.111 79.9766 118.48 81.7181 120.434 85.2012C122.419 88.6842 123.412 93.2415 123.412 98.873V134.908C123.412 138.652 122.875 142.037 121.801 145.064C120.759 148.059 119.099 150.436 116.82 152.193C114.574 153.919 111.628 154.781 107.982 154.781C103.23 154.781 99.7956 151.917 97.6797 146.188V166.207H79.9062ZM101.83 141.158C103.653 141.158 104.743 140.247 105.102 138.424C105.492 136.601 105.688 134.355 105.688 131.686V103.072C105.688 100.37 105.492 98.1243 105.102 96.334C104.743 94.5111 103.653 93.5996 101.83 93.5996C99.9421 93.5996 98.7702 94.5273 98.3145 96.3828C97.8913 98.2057 97.6797 100.436 97.6797 103.072V131.686C97.6797 134.322 97.8913 136.568 98.3145 138.424C98.7702 140.247 99.9421 141.158 101.83 141.158ZM143.432 154.781C139.363 154.781 136.254 153.837 134.105 151.949C131.99 150.061 130.541 147.473 129.76 144.186C128.979 140.898 128.588 137.171 128.588 133.004C128.588 128.544 129.027 124.898 129.906 122.066C130.785 119.202 132.283 116.858 134.398 115.035C136.547 113.212 139.493 111.666 143.236 110.396L154.076 106.686V99.166C154.076 95.2272 152.79 93.2578 150.219 93.2578C147.875 93.2578 146.703 94.8529 146.703 98.043V102.438H129.711C129.678 102.177 129.662 101.852 129.662 101.461C129.662 101.038 129.662 100.566 129.662 100.045C129.662 92.7533 131.371 87.5938 134.789 84.5664C138.24 81.5065 143.692 79.9766 151.146 79.9766C155.053 79.9766 158.552 80.6764 161.645 82.0762C164.737 83.4434 167.178 85.4779 168.969 88.1797C170.792 90.8815 171.703 94.2181 171.703 98.1895V154H154.32V145.309C153.474 148.368 152.074 150.712 150.121 152.34C148.168 153.967 145.938 154.781 143.432 154.781ZM150.316 141.207C151.749 141.207 152.725 140.605 153.246 139.4C153.767 138.196 154.027 136.894 154.027 135.494V115.084C151.618 116.061 149.747 117.298 148.412 118.795C147.077 120.26 146.41 122.424 146.41 125.289V134.713C146.41 139.042 147.712 141.207 150.316 141.207ZM200.463 154.781C192.26 154.781 186.433 152.682 182.982 148.482C179.564 144.283 177.855 138.115 177.855 129.977V107.418C177.855 101.298 178.507 96.2038 179.809 92.1348C181.111 88.0658 183.389 85.0221 186.645 83.0039C189.9 80.9857 194.424 79.9766 200.219 79.9766C204.255 79.9766 207.868 80.6927 211.059 82.125C214.281 83.5573 216.82 85.6569 218.676 88.4238C220.531 91.1908 221.459 94.5762 221.459 98.5801V109.762H203.637V99.5078C203.637 97.8151 203.393 96.3991 202.904 95.2598C202.416 94.0879 201.358 93.502 199.73 93.502C196.866 93.502 195.434 95.5365 195.434 99.6055V135.104C195.434 136.601 195.759 137.984 196.41 139.254C197.061 140.491 198.135 141.109 199.633 141.109C201.163 141.109 202.221 140.507 202.807 139.303C203.425 138.066 203.734 136.633 203.734 135.006V122.701H221.459V135.494C221.459 139.531 220.548 142.997 218.725 145.895C216.934 148.759 214.46 150.956 211.303 152.486C208.145 154.016 204.532 154.781 200.463 154.781ZM248.852 154.781C234.268 154.781 226.977 147.213 226.977 132.076V102.682C226.977 95.7806 228.913 90.2793 232.787 86.1777C236.661 82.0436 242.016 79.9766 248.852 79.9766C255.72 79.9766 261.091 82.0436 264.965 86.1777C268.839 90.2793 270.775 95.7806 270.775 102.682V132.076C270.775 147.213 263.467 154.781 248.852 154.781ZM248.852 141.305C250.316 141.305 251.358 140.784 251.977 139.742C252.628 138.668 252.953 137.317 252.953 135.689V99.8984C252.953 95.6341 251.586 93.502 248.852 93.502C246.117 93.502 244.75 95.6341 244.75 99.8984V135.689C244.75 137.317 245.059 138.668 245.678 139.742C246.329 140.784 247.387 141.305 248.852 141.305ZM292.309 154.781C287.589 154.781 284.398 153.788 282.738 151.803C281.111 149.785 280.297 146.708 280.297 142.574V96.9199H275.365V83.5898H280.297V68.0625H297.289V83.5898H302.221V96.9199H297.289V138.473C297.289 139.677 297.484 140.523 297.875 141.012C298.266 141.5 299.014 141.744 300.121 141.744C300.902 141.744 301.602 141.679 302.221 141.549V153.463C301.83 153.593 300.609 153.837 298.559 154.195C296.508 154.586 294.424 154.781 292.309 154.781ZM328.344 154.781C323.135 154.781 318.985 153.805 315.893 151.852C312.8 149.898 310.587 147.083 309.252 143.404C307.917 139.726 307.25 135.299 307.25 130.123V100.68C307.25 93.8763 309.203 88.7331 313.109 85.25C317.016 81.7344 322.387 79.9766 329.223 79.9766C343.285 79.9766 350.316 86.8776 350.316 100.68V106.002C350.316 112.447 350.251 116.777 350.121 118.99H324.73V133.15C324.73 134.452 324.812 135.738 324.975 137.008C325.137 138.245 325.495 139.27 326.049 140.084C326.635 140.898 327.562 141.305 328.832 141.305C330.655 141.305 331.794 140.523 332.25 138.961C332.706 137.366 332.934 135.299 332.934 132.76V125.729H350.316V129.879C350.316 135.348 349.633 139.938 348.266 143.648C346.931 147.327 344.652 150.11 341.43 151.998C338.24 153.854 333.878 154.781 328.344 154.781ZM324.633 110.299H332.934V100.436C332.934 97.7988 332.608 95.9108 331.957 94.7715C331.306 93.5996 330.329 93.0137 329.027 93.0137C327.628 93.0137 326.537 93.5671 325.756 94.6738C325.007 95.7806 324.633 97.7012 324.633 100.436V110.299ZM376.732 154.781C362.279 154.781 355.053 147.457 355.053 132.809V126.998H372.631V135.592C372.631 137.252 372.956 138.554 373.607 139.498C374.258 140.442 375.3 140.914 376.732 140.914C379.271 140.914 380.541 139.01 380.541 135.201C380.541 132.011 379.874 129.635 378.539 128.072C377.204 126.477 375.577 124.947 373.656 123.482L364.33 116.305C361.4 114.026 359.171 111.617 357.641 109.078C356.111 106.539 355.346 103.007 355.346 98.4824C355.346 94.2832 356.339 90.8164 358.324 88.082C360.342 85.3477 362.995 83.3132 366.283 81.9785C369.604 80.6439 373.184 79.9766 377.025 79.9766C391.218 79.9766 398.314 87.0566 398.314 101.217V102.584H380.248V99.8008C380.248 98.3359 379.988 96.9199 379.467 95.5527C378.979 94.1855 378.002 93.502 376.537 93.502C374.063 93.502 372.826 94.804 372.826 97.4082C372.826 100.045 373.868 102.112 375.951 103.609L386.791 111.52C390.176 113.961 393.008 116.858 395.287 120.211C397.598 123.564 398.754 128.023 398.754 133.59C398.754 140.491 396.785 145.748 392.846 149.361C388.939 152.975 383.568 154.781 376.732 154.781Z" fill="white"/>
<path d="M85.2656 89.8C84.0656 89.8 83.0256 89.44 82.1456 88.72C81.3456 88 80.9456 87.12 80.9456 86.08C80.9456 85.52 81.0656 85 81.3056 84.52C83.3856 79.48 86.9856 72.92 92.1056 64.84L95.8256 58.96C100.626 51.44 104.906 44.48 108.666 38.08C112.506 31.6 115.546 25.88 117.786 20.92C120.026 15.88 121.146 11.84 121.146 8.8C121.146 5.44 119.586 3.76 116.466 3.76C114.786 3.76 112.666 4.24 110.106 5.2C107.546 6.24 104.786 7.55999 101.826 9.16C98.9456 10.76 95.8656 12.72 92.5856 15.04C88.2656 18.08 84.2256 21.44 80.4656 25.12C76.7056 28.72 73.5456 32.44 70.9856 36.28C68.5056 40.04 66.8656 43.68 66.0656 47.2C65.7456 48.56 65.5856 50.04 65.5856 51.64C65.5856 57.8 69.1856 60.88 76.3856 60.88C76.9456 60.88 78.0256 60.68 79.6256 60.28C81.3056 59.8 82.9856 59.28 84.6656 58.72C86.3456 58.16 87.4256 57.76 87.9056 57.52C88.3856 57.28 88.7456 57.16 88.9856 57.16C89.4656 57.16 89.7056 57.4 89.7056 57.88C89.7056 58.6 89.1056 59.24 87.9056 59.8C87.2656 60.12 86.1456 60.52 84.5456 61C82.9456 61.48 81.3456 61.92 79.7456 62.32C78.2256 62.72 77.1056 62.92 76.3856 62.92C71.5856 62.84 67.9456 62 65.4656 60.4C63.0656 58.8 61.8656 56.12 61.8656 52.36C61.8656 51.72 61.9056 50.96 61.9856 50.08C62.1456 49.2 62.3056 48.24 62.4656 47.2C63.9056 40.4 67.6256 33.64 73.6256 26.92C77.6256 22.44 82.0656 18.4 86.9456 14.8C91.8256 11.2 96.7856 8.2 101.826 5.8C106.946 3.32 111.746 1.64 116.226 0.759999C117.666 0.519997 118.906 0.399996 119.946 0.399996C124.506 0.399996 126.786 2.6 126.786 7C126.786 8.52 126.546 10.2 126.066 12.04C125.266 15.4 124.066 18.72 122.466 22C120.946 25.2 119.026 28.6 116.706 32.2C114.466 35.8 111.826 39.92 108.786 44.56L101.946 55C101.866 55.16 101.866 55.32 101.946 55.48C102.106 55.64 102.266 55.64 102.426 55.48C103.706 54.12 105.546 52.32 107.946 50.08C110.346 47.76 113.386 45 117.066 41.8C120.586 38.68 124.146 35.68 127.746 32.8C131.346 29.92 134.746 27.36 137.946 25.12C141.226 22.8 144.146 21 146.706 19.72C149.266 18.36 151.266 17.68 152.706 17.68C155.826 17.68 157.386 19.28 157.386 22.48C157.386 24.8 156.466 27.72 154.626 31.24C152.866 34.44 151.106 37.68 149.346 40.96C147.666 44.16 146.026 47.36 144.426 50.56H144.306C138.546 61.92 135.306 69.44 134.586 73.12C134.426 74 134.306 74.8 134.226 75.52C134.146 76.16 134.106 76.72 134.106 77.2C134.106 78.64 134.306 79.8 134.706 80.68C135.186 81.56 135.946 82 136.986 82C138.026 82 139.506 81.56 141.426 80.68C143.346 79.88 145.186 78.8 146.946 77.44C148.546 76.24 149.626 75.64 150.186 75.64C150.506 75.64 150.666 75.76 150.666 76C150.666 76.24 150.546 76.56 150.306 76.96C149.746 77.92 148.786 78.88 147.426 79.84C144.866 81.68 142.666 83.08 140.826 84.04C139.066 85.08 137.586 85.6 136.386 85.6C134.146 85.6 132.306 84.88 130.866 83.44C129.506 82 128.826 79.96 128.826 77.32C128.826 77 128.866 76.52 128.946 75.88C129.026 75.24 129.146 74.44 129.306 73.48C129.866 70.84 130.986 67.48 132.666 63.4C134.426 59.32 136.586 54.68 139.146 49.48C141.786 44.28 144.626 38.76 147.666 32.92C148.946 30.44 149.586 28.64 149.586 27.52C149.586 26.24 148.946 25.6 147.666 25.6C146.546 25.6 145.026 26.04 143.106 26.92C141.266 27.72 139.266 28.76 137.106 30.04C135.026 31.32 132.986 32.64 130.986 34C128.986 35.36 127.306 36.56 125.946 37.6C122.586 40.24 118.986 43.44 115.146 47.2C111.386 50.96 107.706 54.92 104.106 59.08C100.586 63.24 97.4656 67.4 94.7456 71.56C94.6656 71.72 94.5856 72.04 94.5056 72.52C94.4256 72.92 94.3456 73.44 94.2656 74.08C94.1856 75.76 93.9856 77.24 93.6656 78.52C93.4256 79.8 92.9056 81.16 92.1056 82.6C91.5456 83.64 91.0656 84.52 90.6656 85.24C90.2656 86.04 89.9056 86.64 89.5856 87.04C88.4656 88.88 87.0256 89.8 85.2656 89.8ZM151.878 81.04C148.758 81.04 147.198 79.64 147.198 76.84C147.198 76.68 147.198 76.4 147.198 76C147.278 75.6 147.358 75.12 147.438 74.56C148.238 71.28 149.838 68.12 152.238 65.08C154.718 61.96 157.558 59.24 160.758 56.92C161.958 55.96 163.878 55.48 166.518 55.48C168.038 55.48 169.358 55.72 170.478 56.2C171.678 56.6 172.518 57.24 172.998 58.12C173.478 58.92 173.718 59.84 173.718 60.88C173.718 61.04 173.678 61.28 173.598 61.6C173.598 61.92 173.558 62.28 173.478 62.68C173.638 62.6 173.878 62.56 174.198 62.56C174.598 62.56 175.078 62.52 175.638 62.44C176.198 62.36 176.718 62.28 177.198 62.2C177.758 62.12 178.318 62.08 178.878 62.08H179.358C180.238 62.08 180.318 62.44 179.598 63.16C178.958 63.8 178.078 64.2 176.958 64.36L172.878 64.84C172.078 67.08 170.678 69.32 168.678 71.56C166.758 73.8 164.598 75.76 162.198 77.44C159.878 79.04 157.678 80.08 155.598 80.56C154.398 80.88 153.158 81.04 151.878 81.04ZM167.238 63.16C167.718 63.16 168.278 63.16 168.918 63.16C169.638 63.08 170.438 63 171.318 62.92C171.398 62.76 171.438 62.4 171.438 61.84C171.438 60.4 170.838 59.4 169.638 58.84C168.998 58.44 168.198 58.24 167.238 58.24C166.038 58.24 164.798 58.64 163.518 59.44C162.318 60.16 161.038 61.12 159.678 62.32C161.358 62.88 163.878 63.16 167.238 63.16ZM155.478 76.84C156.278 76.84 157.398 76.48 158.838 75.76C160.358 74.96 161.918 73.92 163.518 72.64C165.118 71.36 166.558 70 167.838 68.56C168.238 68.16 168.638 67.68 169.038 67.12C169.438 66.48 169.878 65.84 170.358 65.2L167.478 65.56C162.998 66.2 158.998 66.56 155.478 66.64C153.718 69.52 152.638 71.92 152.238 73.84C152.158 74.88 152.438 75.64 153.078 76.12C153.718 76.6 154.518 76.84 155.478 76.84ZM173.157 84.04C171.877 84.04 170.757 83.92 169.797 83.68C168.917 83.44 168.477 83.12 168.477 82.72C168.477 82.08 169.117 81.72 170.397 81.64C171.597 81.56 172.397 81.44 172.797 81.28C173.517 81.12 174.357 81 175.317 80.92C176.197 80.76 176.917 80.64 177.477 80.56C181.317 79.44 183.237 77.72 183.237 75.4C183.237 73.8 182.397 71.76 180.717 69.28C179.677 67.76 179.157 66.08 179.157 64.24C179.157 62 179.837 59.8 181.197 57.64C182.637 55.48 184.397 53.6 186.477 52C188.637 50.32 190.797 49.2 192.957 48.64C193.917 48.4 194.917 48.28 195.957 48.28C197.637 48.28 198.837 48.68 199.557 49.48C200.037 49.96 200.277 51 200.277 52.6C200.277 53.8 200.077 55.04 199.677 56.32C199.277 57.52 198.717 58.52 197.997 59.32C197.597 59.72 197.277 59.92 197.037 59.92C196.637 59.92 196.437 59.36 196.437 58.24L196.557 55.84C196.637 55.2 196.677 54.64 196.677 54.16C196.757 53.68 196.797 53.28 196.797 52.96C196.797 51.6 196.517 50.8 195.957 50.56C195.317 50.4 194.877 50.32 194.637 50.32C192.957 50.32 191.157 51.08 189.237 52.6C187.317 54.12 185.757 55.88 184.557 57.88C184.077 58.6 183.837 59.48 183.837 60.52C183.837 61.8 184.157 63.32 184.797 65.08C185.517 66.76 186.037 68 186.357 68.8C187.157 70.56 187.757 72.08 188.157 73.36C188.637 74.64 188.877 75.76 188.877 76.72C188.877 77.2 188.837 77.56 188.757 77.8C189.157 77.64 190.117 77.4 191.637 77.08C192.997 76.76 194.157 76.6 195.117 76.6C195.677 76.6 195.957 76.72 195.957 76.96C195.957 77.04 195.717 77.32 195.237 77.8C194.997 78.04 194.237 78.44 192.957 79C191.757 79.48 190.317 80 188.637 80.56C187.037 81.12 185.437 81.64 183.837 82.12C182.237 82.6 180.877 82.96 179.757 83.2C177.837 83.76 175.637 84.04 173.157 84.04ZM196.243 84.04C194.963 84.04 193.843 83.92 192.883 83.68C192.003 83.44 191.563 83.12 191.563 82.72C191.563 82.08 192.203 81.72 193.483 81.64C194.683 81.56 195.483 81.44 195.883 81.28C196.603 81.12 197.443 81 198.403 80.92C199.283 80.76 200.003 80.64 200.563 80.56C204.403 79.44 206.323 77.72 206.323 75.4C206.323 73.8 205.483 71.76 203.803 69.28C202.763 67.76 202.243 66.08 202.243 64.24C202.243 62 202.923 59.8 204.283 57.64C205.723 55.48 207.483 53.6 209.563 52C211.723 50.32 213.883 49.2 216.043 48.64C217.003 48.4 218.003 48.28 219.043 48.28C220.723 48.28 221.923 48.68 222.643 49.48C223.123 49.96 223.363 51 223.363 52.6C223.363 53.8 223.163 55.04 222.763 56.32C222.363 57.52 221.803 58.52 221.083 59.32C220.683 59.72 220.363 59.92 220.123 59.92C219.723 59.92 219.523 59.36 219.523 58.24L219.643 55.84C219.723 55.2 219.763 54.64 219.763 54.16C219.843 53.68 219.883 53.28 219.883 52.96C219.883 51.6 219.603 50.8 219.043 50.56C218.403 50.4 217.963 50.32 217.723 50.32C216.043 50.32 214.243 51.08 212.323 52.6C210.403 54.12 208.843 55.88 207.643 57.88C207.163 58.6 206.923 59.48 206.923 60.52C206.923 61.8 207.243 63.32 207.883 65.08C208.603 66.76 209.123 68 209.443 68.8C210.243 70.56 210.843 72.08 211.243 73.36C211.723 74.64 211.963 75.76 211.963 76.72C211.963 77.2 211.923 77.56 211.843 77.8C212.243 77.64 213.203 77.4 214.723 77.08C216.083 76.76 217.243 76.6 218.203 76.6C218.763 76.6 219.043 76.72 219.043 76.96C219.043 77.04 218.803 77.32 218.323 77.8C218.083 78.04 217.323 78.44 216.043 79C214.843 79.48 213.403 80 211.723 80.56C210.123 81.12 208.523 81.64 206.923 82.12C205.323 82.6 203.963 82.96 202.843 83.2C200.923 83.76 198.723 84.04 196.243 84.04ZM226.409 81.04C223.289 81.04 221.729 79.64 221.729 76.84C221.729 76.68 221.729 76.4 221.729 76C221.809 75.6 221.889 75.12 221.969 74.56C222.769 71.28 224.369 68.12 226.769 65.08C229.249 61.96 232.089 59.24 235.289 56.92C236.489 55.96 238.409 55.48 241.049 55.48C242.569 55.48 243.889 55.72 245.009 56.2C246.209 56.6 247.049 57.24 247.529 58.12C248.009 58.92 248.249 59.84 248.249 60.88C248.249 61.04 248.209 61.28 248.129 61.6C248.129 61.92 248.089 62.28 248.009 62.68C248.169 62.6 248.409 62.56 248.729 62.56C249.129 62.56 249.609 62.52 250.169 62.44C250.729 62.36 251.249 62.28 251.729 62.2C252.289 62.12 252.849 62.08 253.409 62.08H253.889C254.769 62.08 254.849 62.44 254.129 63.16C253.489 63.8 252.609 64.2 251.489 64.36L247.409 64.84C246.609 67.08 245.209 69.32 243.209 71.56C241.289 73.8 239.129 75.76 236.729 77.44C234.409 79.04 232.209 80.08 230.129 80.56C228.929 80.88 227.689 81.04 226.409 81.04ZM241.769 63.16C242.249 63.16 242.809 63.16 243.449 63.16C244.169 63.08 244.969 63 245.849 62.92C245.929 62.76 245.969 62.4 245.969 61.84C245.969 60.4 245.369 59.4 244.169 58.84C243.529 58.44 242.729 58.24 241.769 58.24C240.569 58.24 239.329 58.64 238.049 59.44C236.849 60.16 235.569 61.12 234.209 62.32C235.889 62.88 238.409 63.16 241.769 63.16ZM230.009 76.84C230.809 76.84 231.929 76.48 233.369 75.76C234.889 74.96 236.449 73.92 238.049 72.64C239.649 71.36 241.089 70 242.369 68.56C242.769 68.16 243.169 67.68 243.569 67.12C243.969 66.48 244.409 65.84 244.889 65.2L242.009 65.56C237.529 66.2 233.529 66.56 230.009 66.64C228.249 69.52 227.169 71.92 226.769 73.84C226.689 74.88 226.969 75.64 227.609 76.12C228.249 76.6 229.049 76.84 230.009 76.84ZM247.688 84.04C246.408 84.04 245.288 83.92 244.328 83.68C243.448 83.44 243.008 83.12 243.008 82.72C243.008 82.08 243.648 81.72 244.928 81.64C246.128 81.56 246.928 81.44 247.328 81.28C248.048 81.12 248.888 81 249.848 80.92C250.728 80.76 251.448 80.64 252.008 80.56C255.848 79.44 257.768 77.72 257.768 75.4C257.768 73.8 256.928 71.76 255.248 69.28C254.208 67.76 253.688 66.08 253.688 64.24C253.688 62 254.368 59.8 255.728 57.64C257.168 55.48 258.928 53.6 261.008 52C263.168 50.32 265.328 49.2 267.488 48.64C268.448 48.4 269.448 48.28 270.488 48.28C272.168 48.28 273.368 48.68 274.088 49.48C274.568 49.96 274.808 51 274.808 52.6C274.808 53.8 274.608 55.04 274.208 56.32C273.808 57.52 273.248 58.52 272.528 59.32C272.128 59.72 271.808 59.92 271.568 59.92C271.168 59.92 270.968 59.36 270.968 58.24L271.088 55.84C271.168 55.2 271.208 54.64 271.208 54.16C271.288 53.68 271.328 53.28 271.328 52.96C271.328 51.6 271.048 50.8 270.488 50.56C269.848 50.4 269.408 50.32 269.168 50.32C267.488 50.32 265.688 51.08 263.768 52.6C261.848 54.12 260.288 55.88 259.088 57.88C258.608 58.6 258.368 59.48 258.368 60.52C258.368 61.8 258.688 63.32 259.328 65.08C260.048 66.76 260.568 68 260.888 68.8C261.688 70.56 262.288 72.08 262.688 73.36C263.168 74.64 263.408 75.76 263.408 76.72C263.408 77.2 263.368 77.56 263.288 77.8C263.688 77.64 264.648 77.4 266.168 77.08C267.528 76.76 268.688 76.6 269.648 76.6C270.208 76.6 270.488 76.72 270.488 76.96C270.488 77.04 270.248 77.32 269.768 77.8C269.528 78.04 268.768 78.44 267.488 79C266.288 79.48 264.848 80 263.168 80.56C261.568 81.12 259.968 81.64 258.368 82.12C256.768 82.6 255.408 82.96 254.288 83.2C252.368 83.76 250.168 84.04 247.688 84.04Z" fill="#FFD600"/>
</svg>
